<svg width="16" height="16" viewBox="0 0 16 16" fill="none" xmlns="http://www.w3.org/2000/svg">
<path d="M14.4405 8.03874C14.4408 6.80075 14.0884 5.5886 13.425 4.54583C12.7616 3.50307 11.8151 2.67334 10.6974 2.15492C9.57974 1.63649 8.33779 1.45107 7.11861 1.62061C5.89943 1.79014 4.75408 2.30754 3.81818 3.11154C2.88227 3.91554 2.19502 4.97246 1.83779 6.15715C1.48055 7.34185 1.4683 8.6047 1.80248 9.79619C2.13667 10.9877 2.80329 12.0579 3.72342 12.8801C4.64354 13.7023 5.77864 14.2421 6.9943 14.4355V9.91081H5.35934V8.03874H6.9943V6.6112C6.95909 6.27796 6.99719 5.94101 7.10589 5.62423C7.21459 5.30745 7.39123 5.0186 7.62329 4.77815C7.85535 4.53769 8.13716 4.35153 8.44873 4.23284C8.76029 4.11415 9.094 4.06585 9.4262 4.09136C9.90922 4.09774 10.3911 4.13996 10.868 4.21767V5.81363H10.0565C9.91829 5.79545 9.77777 5.80876 9.64535 5.85259C9.51294 5.89642 9.39201 5.96963 9.29153 6.06682C9.19104 6.16401 9.11357 6.28268 9.06484 6.41405C9.01611 6.54542 8.99737 6.68614 9.01002 6.82578V8.04036H10.7963L10.5105 9.91243H9.0068V14.4396C10.522 14.1985 11.9019 13.4212 12.898 12.2478C13.8942 11.0744 14.4412 9.58177 14.4405 8.03874Z" fill="currentColor"/>
</svg>
