<svg width="16" height="16" viewBox="0 0 16 16" fill="none" xmlns="http://www.w3.org/2000/svg">
<path d="M13.8005 1.59961H2.12055C1.80055 1.59961 1.56055 1.83961 1.56055 2.15961V13.9196C1.56055 14.1596 1.80055 14.3996 2.12055 14.3996H13.8805C14.2005 14.3996 14.4405 14.1596 14.4405 13.8396V2.15961C14.3605 1.83961 14.1205 1.59961 13.8005 1.59961ZM5.32055 12.4796H3.48055V6.39961H5.40055V12.4796H5.32055ZM4.44055 5.59961C3.80055 5.59961 3.32055 5.03961 3.32055 4.47961C3.32055 3.83961 3.80055 3.35961 4.44055 3.35961C5.08055 3.35961 5.56055 3.83961 5.56055 4.47961C5.48055 5.03961 5.00055 5.59961 4.44055 5.59961ZM12.4405 12.4796H10.5205V9.51961C10.5205 8.79961 10.5205 7.91961 9.56055 7.91961C8.60055 7.91961 8.44055 8.71961 8.44055 9.51961V12.5596H6.52055V6.39961H8.36055V7.19961C8.60055 6.71961 9.24055 6.23961 10.1205 6.23961C12.0405 6.23961 12.3605 7.51961 12.3605 9.11961V12.4796H12.4405Z" fill="currentColor"/>
</svg>
