<svg width="20" height="20" viewBox="0 0 20 20" fill="none" xmlns="http://www.w3.org/2000/svg">
  <g clip-path="url(#clip0_17710_20814555)">
    <path fill-rule="evenodd" clip-rule="evenodd" d="M0 3.44828C0 1.54385 1.5413 0 3.4426 0H16.5245C18.4258 0 19.9671 1.54385 19.9671 3.44828V14.5927C19.9671 16.563 17.4779 17.4181 16.2707 15.8625L12.4966 10.9996V16.8966C12.4966 18.6105 11.1095 20 9.39829 20H3.4426C1.5413 20 0 18.4562 0 16.5517V3.44828ZM3.4426 2.75862C3.06234 2.75862 2.75408 3.06739 2.75408 3.44828V16.5517C2.75408 16.9326 3.06234 17.2414 3.4426 17.2414H9.50156C9.69169 17.2414 9.74255 17.087 9.74255 16.8966V8.98872C9.74255 7.01849 12.2316 6.16338 13.4389 7.71891L17.213 12.5819V3.44828C17.213 3.06739 17.249 2.75862 16.8687 2.75862H3.4426Z" fill="currentColor"/>
    <path d="M16.5246 0C18.4259 0 19.9672 1.54385 19.9672 3.44828V14.5927C19.9672 16.563 17.4781 17.4181 16.2709 15.8625L12.4968 10.9996V16.8966C12.4968 18.6105 11.1096 20 9.39844 20C9.58857 20 9.7427 19.8456 9.7427 19.6552V8.98872C9.7427 7.01849 12.2318 6.16338 13.439 7.71891L17.2131 12.5819V0.689655C17.2131 0.308769 16.9049 0 16.5246 0Z" fill="currentColor" />
  </g>
  <defs>
    <clipPath id="clip0_17710_20814555">
      <rect width="20" height="20" fill="white"/>
    </clipPath>
  </defs>
</svg>
