<svg width="16" height="16" viewBox="0 0 16 16" fill="none" xmlns="http://www.w3.org/2000/svg">
<path d="M14.4405 3.97508C13.9575 4.21658 13.4745 4.29708 12.911 4.37758C13.4745 4.05558 13.877 3.57258 14.038 2.92858C13.555 3.25058 12.9915 3.41158 12.3475 3.57258C11.8645 3.08958 11.14 2.76758 10.4155 2.76758C9.04705 2.76758 7.83955 3.97508 7.83955 5.42408C7.83955 5.66558 7.83955 5.82658 7.92005 5.98758C5.74655 5.90708 3.73405 4.86058 2.44605 3.25058C2.20455 3.65308 2.12405 4.05558 2.12405 4.61908C2.12405 5.50458 2.60705 6.30958 3.33155 6.79258C2.92905 6.79258 2.52655 6.63158 2.12405 6.47058C2.12405 7.75858 3.00955 8.80508 4.21705 9.04658C3.97555 9.12708 3.73405 9.12708 3.49255 9.12708C3.33155 9.12708 3.17055 9.12708 3.00955 9.04658C3.33155 10.0931 4.29755 10.8981 5.50505 10.8981C4.61955 11.6226 3.49255 12.0251 2.20455 12.0251C1.96305 12.0251 1.80205 12.0251 1.56055 12.0251C2.76805 12.7496 4.13655 13.2326 5.58555 13.2326C10.4155 13.2326 13.072 9.20758 13.072 5.74608C13.072 5.66558 13.072 5.50458 13.072 5.42408C13.6355 5.02158 14.1185 4.53858 14.4405 3.97508Z" fill="currentColor"/>
</svg>
