<svg width="16" height="16" viewBox="0 0 16 16" fill="none" xmlns="http://www.w3.org/2000/svg">
<path d="M14.2795 5.42392C14.1185 4.37742 13.6355 3.65292 12.5085 3.49192C10.7375 3.16992 8.00055 3.16992 8.00055 3.16992C8.00055 3.16992 5.26355 3.16992 3.49255 3.49192C2.36555 3.65292 1.80205 4.37742 1.72155 5.42392C1.56055 6.47042 1.56055 7.99992 1.56055 7.99992C1.56055 7.99992 1.56055 9.52942 1.72155 10.5759C1.88255 11.6224 2.36555 12.3469 3.49255 12.5079C5.26355 12.8299 8.00055 12.8299 8.00055 12.8299C8.00055 12.8299 10.7375 12.8299 12.5085 12.5079C13.6355 12.2664 14.1185 11.6224 14.2795 10.5759C14.4405 9.52942 14.4405 7.99992 14.4405 7.99992C14.4405 7.99992 14.4405 6.47042 14.2795 5.42392ZM6.39055 10.4149V5.58492L10.4155 7.99992L6.39055 10.4149Z" fill="currentColor"/>
</svg>
