<svg viewBox="0 0 450 453" fill="none" xmlns="http://www.w3.org/2000/svg" class="text-foreground h-[30px] md:h-[32px]"><g opacity="1" transform-origin="225px 226.1844940185547px" style="transform: none; transform-origin: 225px 226.184px;"><path d="M275.087 92.2125C282.466 83.6454 280.013 76.6057 269.633 76.5836L18.8726 75.6095C8.49268 75.5652 0 85.5049 0 97.6805V279.76C0 291.936 8.49268 301.875 18.8726 301.853L205.711 301.388C216.091 301.366 224.622 291.382 224.66 279.207L224.754 248.215C224.792 236.039 216.337 226.121 205.957 226.166L90.5885 226.675C80.2086 226.719 70.0174 226.852 67.9414 226.985C65.8654 227.118 64.1669 217.244 64.1669 205.069V174.076C64.1669 161.901 72.6596 151.873 83.0395 151.806L205.711 150.943C216.091 150.877 230.623 143.815 238.003 135.248L275.087 92.2347V92.2125Z" fill="currentColor"></path><path d="M275.087 92.2125C282.466 83.6454 280.013 76.6057 269.633 76.5836L18.8726 75.6095C8.49268 75.5652 0 85.5049 0 97.6805V279.76C0 291.936 8.49268 301.875 18.8726 301.853L205.711 301.388C216.091 301.366 224.622 291.382 224.66 279.207L224.754 248.215C224.792 236.039 216.337 226.121 205.957 226.166L90.5885 226.675C80.2086 226.719 70.0174 226.852 67.9414 226.985C65.8654 227.118 64.1669 217.244 64.1669 205.069V174.076C64.1669 161.901 72.6596 151.873 83.0395 151.806L205.711 150.943C216.091 150.877 230.623 143.815 238.003 135.248L275.087 92.2347V92.2125Z" fill="currentColor"></path><path d="M174.688 360.037C167.309 368.604 169.762 375.644 180.142 375.666L430.902 376.64C441.282 376.685 449.775 366.745 449.775 354.569V172.49C449.775 160.314 441.282 150.374 430.902 150.397L244.064 150.861C233.684 150.884 225.153 160.868 225.115 173.043L225.021 204.035C224.983 216.211 233.438 226.128 243.818 226.084L359.187 225.575C369.566 225.531 379.758 225.398 381.834 225.265C383.91 225.132 385.608 235.005 385.608 247.181V278.173C385.608 290.349 377.115 300.377 366.736 300.444L244.064 301.307C233.684 301.373 219.152 308.435 211.773 317.002L174.688 360.015V360.037Z" fill="currentColor"></path><path d="M174.688 360.037C167.309 368.604 169.762 375.644 180.142 375.666L430.902 376.64C441.282 376.685 449.775 366.745 449.775 354.569V172.49C449.775 160.314 441.282 150.374 430.902 150.397L244.064 150.861C233.684 150.884 225.153 160.868 225.115 173.043L225.021 204.035C224.983 216.211 233.438 226.128 243.818 226.084L359.187 225.575C369.566 225.531 379.758 225.398 381.834 225.265C383.91 225.132 385.608 235.005 385.608 247.181V278.173C385.608 290.349 377.115 300.377 366.736 300.444L244.064 301.307C233.684 301.373 219.152 308.435 211.773 317.002L174.688 360.015V360.037Z" fill="currentColor"></path><path d="M299.128 74.5917C288.045 74.525 285.425 67.4327 293.305 58.8285L332.902 15.6298C340.781 7.02562 356.297 0 367.38 0H429.849C440.932 0 450 10.0048 450 22.233V53.3592C450 65.5873 440.932 75.5255 429.849 75.4588L299.128 74.5917Z" fill="currentColor"></path><path d="M150.872 377.778C161.955 377.844 164.575 384.937 156.696 393.541L117.099 436.739C109.219 445.344 93.703 452.369 82.6199 452.369H20.1512C9.06804 452.369 0 442.364 0 430.136V399.01C0 386.782 9.06804 376.844 20.1512 376.91L150.872 377.778Z" fill="currentColor"></path></g></svg>