<svg xmlns="http://www.w3.org/2000/svg" width="38" height="32" viewBox="0 0 38 32" fill="none">
  <g clip-path="url(#clip0_19603_30702)">
    <path d="M34.3455 19.9654L32.3346 20.8416L32.3788 20.8224C33.646 19.8707 34.3519 19.335 32.6751 18.0048L26.9509 14.7581L15.9941 8.57376L16.4229 0C16.4229 0 28.4828 6.34208 33.1228 9.43104C37.7625 12.5264 39.4268 17.2294 34.3455 19.9654Z" fill="url(#paint0_linear_19603_30702)"/>
    <path d="M22.7966 3.42969L22.2858 12.1359L10.8311 17.3052L5.08808 14.1151C3.40488 12.7977 4.1172 12.2556 5.37192 11.2972L5.40328 11.2722L5.22696 11.3478L5.30248 11.3161L16.1015 6.50009L22.7966 3.42969Z" fill="url(#paint1_linear_19603_30702)"/>
    <path d="M21.8494 23.4201L21.7546 25.5129L21.4714 32L14.9086 28.5389C11.29 26.5785 7.06601 24.24 4.71465 22.695C0.0557657 19.6374 -1.65271 14.9347 3.41609 12.167L5.22537 11.3475L5.40169 11.272L5.37033 11.2969C4.10953 12.2617 3.40329 12.7977 5.08649 14.1152L10.8295 17.3049L15.4823 19.8832L21.8494 23.4201Z" fill="url(#paint2_linear_19603_30702)"/>
    <path d="M32.379 20.8292L23.099 24.9147L21.9834 25.4126L21.7562 25.5134L14.9102 28.5393L15.4836 19.89L26.9511 14.771L32.6817 18.0116C34.3585 19.3355 33.6522 19.8772 32.379 20.8296" fill="url(#paint3_linear_19603_30702)"/>
  </g>
  <defs>
    <linearGradient id="paint0_linear_19603_30702" x1="22.5861" y1="0.032" x2="30.2473" y2="21.6835" gradientUnits="userSpaceOnUse">
      <stop offset="0.057" stop-color="#6D7083"/>
      <stop offset="0.875" stop-color="#2B2C34"/>
    </linearGradient>
    <linearGradient id="paint1_linear_19603_30702" x1="13.4494" y1="3.43001" x2="13.4494" y2="17.3046" gradientUnits="userSpaceOnUse">
      <stop stop-color="#888B9E"/>
      <stop offset="1" stop-color="#32333E"/>
    </linearGradient>
    <linearGradient id="paint2_linear_19603_30702" x1="11.0922" y1="11.2688" x2="11.0922" y2="31.9974" gradientUnits="userSpaceOnUse">
      <stop stop-color="#888B9E"/>
      <stop offset="0.578" stop-color="#32333E"/>
    </linearGradient>
    <linearGradient id="paint3_linear_19603_30702" x1="3.96648" y1="27.8475" x2="42.2967" y2="13.8488" gradientUnits="userSpaceOnUse">
      <stop offset="0.307" stop-color="#888B9E"/>
      <stop offset="0.413" stop-color="#6D7083"/>
      <stop offset="0.705" stop-color="#37394E"/>
      <stop offset="1" stop-color="#32333E"/>
    </linearGradient>
    <clipPath id="clip0_19603_30702">
      <rect width="38" height="32" fill="white"/>
    </clipPath>
  </defs>
</svg>
