<svg xmlns="http://www.w3.org/2000/svg" width="27" height="32" viewBox="0 0 27 32" fill="none">
  <g clip-path="url(#clip0_19605_31018)">
    <path d="M13.1706 10.3483H1.97653C0.874238 10.3483 0 9.47038 0 8.40567V1.94264C0 0.859245 0.893244 0 1.97653 0H11.194C12.2963 0 13.1706 0.877923 13.1706 1.94264V10.3483Z" fill="#18181B"/>
    <path d="M25.1753 21.6206H13.1816V10.3315H25.1753C26.336 10.3315 27.293 11.2876 27.293 12.447V19.5052C27.293 20.6849 26.336 21.6206 25.1753 21.6206Z" fill="#18181B"/>
    <path d="M11.194 31.9998H1.97653C0.893244 31.9998 0 31.1234 0 30.0605V23.5906C0 22.5278 0.893244 21.6514 1.97653 21.6514H13.1706V30.0605C13.1706 31.1234 12.2773 31.9998 11.194 31.9998Z" fill="#18181B"/>
  </g>
  <defs>
    <clipPath id="clip0_19605_31018">
      <rect width="27" height="32" fill="white"/>
    </clipPath>
  </defs>
</svg>
