<svg width="23" height="25" viewBox="0 0 23 25" fill="none" xmlns="http://www.w3.org/2000/svg">
<path d="M11.6371 11.6165C11.6371 11.8632 11.7352 12.0998 11.9096 12.2743C12.0841 12.4487 12.3207 12.5468 12.5674 12.5468H18.7033C21.227 12.5468 23.3529 14.6683 22.3871 16.9999C21.8024 18.4116 20.9452 19.6948 19.8647 20.7753C18.7843 21.8556 17.5018 22.713 16.0903 23.2977C14.6787 23.8824 13.165 24.1834 11.6371 24.1835V13.4803C11.6371 13.2327 11.5388 12.9953 11.3637 12.8202C11.1886 12.6451 10.9512 12.5468 10.7036 12.5468H4.57103C2.0473 12.5468 -0.0785901 10.4253 0.887147 8.09363C1.47193 6.68184 2.32907 5.39877 3.40961 4.31824C4.49002 3.23787 5.77244 2.38053 7.18402 1.79578C8.59566 1.21108 10.1092 0.910081 11.6371 0.910034V11.6165ZM0.883457 17.0009C-0.0832723 14.6697 2.12196 12.4667 4.45355 13.4325C5.86519 14.0173 7.14851 14.8745 8.22894 15.955C9.30927 17.0354 10.1667 18.3188 10.7514 19.7303C11.336 21.1419 11.6371 22.6556 11.6371 24.1835C6.78836 24.1835 2.63203 21.2174 0.883457 17.0009ZM11.6371 0.910034C16.4859 0.910152 20.6423 3.87611 22.3909 8.09264C23.3576 10.4239 21.1524 12.6267 18.8207 11.661C17.4091 11.0763 16.1258 10.2189 15.0454 9.13855C13.965 8.05813 13.1076 6.77475 12.5229 5.36316C11.9382 3.95155 11.6372 2.43793 11.6371 0.910034Z" fill="currentColor" />
</svg>
